<svg width="20" height="22" viewBox="0 0 20 22" fill="none" xmlns="http://www.w3.org/2000/svg">
<path d="M15 9.66667V6.33333C15 3.57191 12.7614 1.33333 10 1.33333C7.23858 1.33333 5 3.57191 5 6.33333V9.66667M10 13.8333V15.5M6.8 20.6667H13.2C14.8802 20.6667 15.7202 20.6667 16.362 20.3487C16.9265 20.0698 17.3865 19.6098 17.6654 19.0453C17.9833 18.4035 17.9833 17.5635 17.9833 15.8833V14.4667C17.9833 12.7865 17.9833 11.9465 17.6654 11.3047C17.3865 10.7402 16.9265 10.2802 16.362 10.0013C15.7202 9.68333 14.8802 9.68333 13.2 9.68333H6.8C5.11984 9.68333 4.27976 9.68333 3.63803 10.0013C3.07354 10.2802 2.6135 10.7402 2.33463 11.3047C2.01667 11.9465 2.01667 12.7865 2.01667 14.4667V15.8833C2.01667 17.5635 2.01667 18.4035 2.33463 19.0453C2.6135 19.6098 3.07354 20.0698 3.63803 20.3487C4.27976 20.6667 5.11984 20.6667 6.8 20.6667Z" stroke="#79869F" stroke-width="1.66667" stroke-linecap="round" stroke-linejoin="round"/>
</svg>
