<svg width="140" height="25" viewBox="0 0 140 25" fill="none" xmlns="http://www.w3.org/2000/svg">
<g clip-path="url(#clip0_38_279)">
<path d="M139.941 18.3378C139.42 18.3727 138.907 18.3159 138.393 18.2792C138.334 18.2755 138.273 18.2829 138.215 18.2792C137.976 18.2627 137.698 18.1839 137.44 18.1619C137.402 18.1583 137.361 18.1656 137.322 18.1619L136.012 17.8669C135.987 17.8578 135.949 17.8285 135.893 17.8083C135.239 17.5738 134.584 17.3337 133.928 17.1029C133.912 17.0974 133.888 17.1084 133.869 17.1029C133.832 16.9929 133.754 16.9709 133.663 16.9233C132.657 16.4084 131.662 15.8166 130.792 15.1405C130.642 15.0232 130.286 14.6018 130.118 14.512C130.103 14.5028 130.071 14.5212 130.058 14.512C130.032 14.4955 129.962 14.5065 129.905 14.4589C129.825 14.3911 129.845 14.3178 129.819 14.2775C129.586 14.1345 129.217 13.7479 129.106 13.5115C129.067 13.4987 128.982 13.539 128.939 13.5024C128.924 13.4896 128.815 13.2001 128.809 13.1597C128.592 13.048 128.505 12.6888 128.359 12.458C127.423 10.9885 126.309 9.23495 125.154 7.94317C124.949 7.71413 124.912 7.68848 124.761 7.45028C124.756 7.44112 124.646 7.43379 124.582 7.36599C121.053 3.75085 116.21 1.41283 111.098 1.03537C110.789 1.01338 109.923 0.941924 109.667 0.973073C109.608 0.980403 109.462 1.00056 109.462 1.06469V7.56755C110.9 7.61702 112.295 7.78559 113.674 8.19969C116.662 9.09752 118.758 10.6843 120.654 13.0406C121.796 14.4607 122.639 16.02 123.807 17.4235C124.426 18.1656 125.064 18.7483 125.773 19.3658C126.144 19.6883 126.405 19.9503 126.754 20.2215C127.43 20.7455 128.033 21.253 128.767 21.7038C129.703 22.2791 130.957 22.9608 131.991 23.2796C132.125 23.3199 132.095 23.3382 132.143 23.4573C132.162 23.4628 132.184 23.4536 132.203 23.4573C132.286 23.6534 132.472 23.6021 132.62 23.6332C132.638 23.6369 132.661 23.6295 132.679 23.6332C132.889 23.8641 133.326 23.9465 133.632 23.9869C133.663 23.9997 133.7 24.0272 133.75 24.0455C134.412 24.302 135.309 24.5329 136.013 24.6337C136.05 24.6392 136.093 24.63 136.132 24.6337C136.139 24.6337 136.147 24.6886 136.251 24.6923C136.29 24.6923 136.33 24.6923 136.369 24.6923C136.74 24.7729 137.124 24.826 137.5 24.8682C137.539 24.8719 137.579 24.8645 137.618 24.8682C138.412 24.9525 139.199 25.0239 140 24.9855L139.941 18.3342V18.3378Z" fill="white"/>
<path d="M139.794 0.973073C139.539 0.941924 138.673 1.01338 138.363 1.03537C133.252 1.41099 128.409 3.75085 124.88 7.36599C124.815 7.43379 124.706 7.44112 124.7 7.45028C124.55 7.68848 124.511 7.71413 124.307 7.94317C123.153 9.23495 122.039 10.9885 121.103 12.458C120.956 12.6888 120.867 13.048 120.652 13.1597C120.647 13.2001 120.536 13.4914 120.523 13.5024C120.48 13.539 120.393 13.5006 120.356 13.5115C120.243 13.7479 119.874 14.1345 119.642 14.2775C119.616 14.3178 119.637 14.3911 119.557 14.4589C119.5 14.5083 119.431 14.4955 119.403 14.512C119.388 14.5212 119.359 14.5028 119.344 14.512C119.175 14.6018 118.819 15.0232 118.669 15.1405C117.802 15.8166 116.807 16.4084 115.798 16.9233C115.708 16.9709 115.63 16.9929 115.593 17.1029C115.574 17.1084 115.55 17.0974 115.533 17.1029C114.877 17.3337 114.223 17.5738 113.569 17.8083C113.513 17.8285 113.472 17.8596 113.45 17.8669L112.14 18.1619C112.101 18.1656 112.06 18.1583 112.021 18.1619C111.765 18.1839 111.487 18.2627 111.246 18.2792C111.187 18.2829 111.126 18.2755 111.069 18.2792C110.555 18.3159 110.042 18.3727 109.521 18.3378L109.462 24.9891C110.262 25.0258 111.05 24.9561 111.843 24.8719C111.882 24.8682 111.923 24.8755 111.962 24.8719C112.338 24.8279 112.722 24.7747 113.092 24.696C113.131 24.696 113.172 24.696 113.211 24.696C113.315 24.6923 113.324 24.6373 113.33 24.6373C113.369 24.6337 113.411 24.6428 113.448 24.6373C114.153 24.5365 115.05 24.3038 115.711 24.0491C115.761 24.029 115.8 24.0015 115.83 23.9905C116.134 23.9502 116.573 23.8678 116.783 23.6369C116.801 23.6332 116.823 23.6405 116.842 23.6369C116.99 23.6039 117.174 23.6552 117.259 23.461C117.277 23.4573 117.3 23.4665 117.318 23.461C117.364 23.3419 117.337 23.3236 117.47 23.2832C118.504 22.9663 119.759 22.2846 120.695 21.7075C121.429 21.2567 122.033 20.7492 122.708 20.2251C123.056 19.9558 123.318 19.6938 123.688 19.3694C124.398 18.7519 125.038 18.1693 125.655 17.4272C126.824 16.0236 127.668 14.4625 128.807 13.0443C130.702 10.688 132.798 9.09936 135.787 8.20336C137.166 7.78926 138.562 7.62068 140 7.57121V1.06469C140 1.00056 139.854 0.980403 139.794 0.973073Z" fill="#6E82D7"/>
<path d="M0.189046 16.9287C1.59392 17.7789 2.78565 18.3744 3.7661 18.717C4.74655 19.0597 5.7029 19.2301 6.63516 19.2301C7.56742 19.2301 8.33658 19.0248 8.90742 18.6162C9.47827 18.2076 9.76369 17.6818 9.76369 17.0386C9.76369 16.117 8.74618 15.0799 6.713 13.9292C6.38866 13.7423 6.1366 13.5976 5.95867 13.4931L4.4185 12.6374C2.9191 11.7982 1.80891 10.8491 1.08424 9.79185C0.361412 8.73644 0 7.53994 0 6.20236C0 4.38838 0.691317 2.90237 2.0758 1.74069C3.46029 0.580841 5.24697 0 7.43768 0C8.24391 0 9.12056 0.0934477 10.0639 0.280343C11.0073 0.467238 12.0563 0.756743 13.2092 1.15069V6.4369C12.1082 5.75345 11.0648 5.22391 10.0806 4.85195C9.09462 4.47816 8.25688 4.2931 7.56556 4.2931C6.80011 4.2931 6.19776 4.45617 5.75665 4.78232C5.31554 5.10847 5.09684 5.55189 5.09684 6.11074C5.09684 6.50469 5.22843 6.87298 5.48976 7.21379C5.75109 7.55644 6.14401 7.8661 6.66852 8.14644L9.34112 9.60679C11.5745 10.8289 13.0757 11.9595 13.8467 12.9966C14.6177 14.0336 15.0032 15.2613 15.0032 16.6813C15.0032 18.8783 14.2452 20.6538 12.731 22.006C11.2168 23.3583 9.20582 24.0344 6.70003 24.0344C5.85117 24.0344 4.92818 23.9464 3.93291 23.7705C2.93763 23.5946 1.84228 23.3198 0.646835 22.946L0.1909 16.9305L0.189046 16.9287Z" fill="white"/>
<path d="M23.603 23.3033V5.47124H16.3544V0.762207H36.2617V5.47307H29.0446V23.3033H23.603Z" fill="white"/>
<path d="M37.4553 12.0329C37.4553 10.3636 37.7462 8.80251 38.3282 7.34582C38.9102 5.88914 39.7664 4.58637 40.8989 3.43568C41.9683 2.33812 43.2101 1.49526 44.6261 0.908925C46.042 0.322587 47.5248 0.03125 49.0761 0.03125C50.6274 0.03125 52.1138 0.326252 53.5335 0.918087C54.9532 1.50809 56.2153 2.35828 57.3144 3.46683C58.4246 4.57537 59.266 5.85799 59.8387 7.31467C60.4096 8.77136 60.695 10.3435 60.695 12.0329C60.695 13.4419 60.4948 14.7685 60.0982 16.0126C59.6997 17.2568 59.1085 18.391 58.3208 19.4171C57.2088 20.8774 55.8447 22.0134 54.2248 22.8215C52.6049 23.6295 50.8887 24.0345 49.0742 24.0345C47.534 24.0345 46.0569 23.7395 44.6483 23.1476C43.2379 22.5576 41.9887 21.7074 40.8989 20.5989C39.7664 19.4482 38.9102 18.1509 38.3282 16.7052C37.7462 15.2596 37.4553 13.7021 37.4553 12.0347V12.0329ZM43.0544 12.0329C43.0544 13.9916 43.6326 15.6315 44.791 16.9526C45.9494 18.2737 47.3783 18.9352 49.0761 18.9352C50.7738 18.9352 52.2157 18.2774 53.3685 16.9618C54.5213 15.6462 55.0977 14.0026 55.0977 12.0329C55.0977 10.0631 54.5213 8.40306 53.3685 7.08197C52.2157 5.76088 50.7849 5.09941 49.0761 5.09941C47.3672 5.09941 45.9494 5.76088 44.791 7.08197C43.6326 8.40306 43.0544 10.054 43.0544 12.0329Z" fill="white"/>
<path d="M81.3437 7.89724C80.3577 6.89131 79.3606 6.14556 78.3486 5.65816C77.3367 5.17077 76.2747 4.92707 75.1645 4.92707C73.2351 4.92707 71.6579 5.58487 70.4309 6.90047C69.204 8.21607 68.5905 9.90545 68.5905 11.9686C68.5905 14.0318 69.1984 15.7029 70.4142 16.9818C71.6301 18.2626 73.2129 18.9021 75.1626 18.9021C76.3154 18.9021 77.4664 18.6639 78.6137 18.1875C79.7609 17.7111 80.9063 16.9965 82.0499 16.0418L81.7033 22.0262C80.7284 22.6785 79.6608 23.1769 78.5025 23.5195C77.3441 23.8621 76.1412 24.0325 74.8939 24.0325C73.552 24.0325 72.2658 23.8255 71.0333 23.4114C69.8008 22.9973 68.6665 22.3853 67.6286 21.5772C66.1607 20.4376 65.0357 19.0468 64.2554 17.4033C63.4751 15.7615 63.084 13.9695 63.084 12.0328C63.084 10.3635 63.3713 8.79874 63.9496 7.33839C64.526 5.87804 65.3656 4.58626 66.4646 3.46673C67.5748 2.34719 68.8592 1.48967 70.3179 0.894166C71.7746 0.298666 73.3111 0 74.9254 0C76.2042 0 77.4256 0.175902 78.5896 0.527704C79.7535 0.879507 80.8637 1.41454 81.9238 2.12914L81.3419 7.89724H81.3437Z" fill="white"/>
<path d="M85.588 23.3033V0.762207H90.9666V10.5724L98.4988 0.762207H104.978L96.3766 11.4885L105.655 23.3033H99.0826L90.9684 12.9196V23.3033H85.5899H85.588Z" fill="white"/>
</g>
<defs>
<clipPath id="clip0_38_279">
<rect width="140" height="25" fill="white"/>
</clipPath>
</defs>
</svg>
